<svg width="20" height="20" viewBox="0 0 20 20" fill="none" xmlns="http://www.w3.org/2000/svg">
<path d="M14.8333 1.75041L6.55834 3.82541C5.35001 4.12541 4.12501 5.35041 3.82501 6.55874L1.75001 14.8337C1.12501 17.3337 2.65834 18.8754 5.16667 18.2504L13.4417 16.1837C14.6417 15.8837 15.875 14.6504 16.175 13.4504L18.25 5.16707C18.875 2.66707 17.3333 1.12541 14.8333 1.75041Z" stroke="white" stroke-width="1.5" stroke-linecap="round" stroke-linejoin="round"/>
<path d="M10 12.9163C11.6108 12.9163 12.9167 11.6105 12.9167 9.99967C12.9167 8.38884 11.6108 7.08301 10 7.08301C8.38918 7.08301 7.08334 8.38884 7.08334 9.99967C7.08334 11.6105 8.38918 12.9163 10 12.9163Z" stroke="white" stroke-width="1.5" stroke-linecap="round" stroke-linejoin="round"/>
</svg>
