<svg width="25" height="24" viewBox="0 0 25 24" fill="none" xmlns="http://www.w3.org/2000/svg">
<path d="M13.7 21.3697C13.04 22.2497 11.96 22.2497 11.3 21.3697L9.79999 19.3697C9.62999 19.1497 9.27 18.9697 9 18.9697H8.5C4.5 18.9697 2.5 17.9697 2.5 12.9697V7.96973C2.5 3.96973 4.5 1.96973 8.5 1.96973H16.5C20.5 1.96973 22.5 3.96973 22.5 7.96973V12.9697" stroke="#B3B9C1" stroke-width="1.5" stroke-miterlimit="10" stroke-linecap="round" stroke-linejoin="round"/>
<path d="M18.7 21.4C20.4673 21.4 21.9 19.9673 21.9 18.2C21.9 16.4327 20.4673 15 18.7 15C16.9327 15 15.5 16.4327 15.5 18.2C15.5 19.9673 16.9327 21.4 18.7 21.4Z" stroke="#B3B9C1" stroke-width="1.5" stroke-linecap="round" stroke-linejoin="round"/>
<path d="M22.5 22L21.5 21" stroke="#B3B9C1" stroke-width="1.5" stroke-linecap="round" stroke-linejoin="round"/>
<path d="M16.4965 11H16.5054" stroke="#B3B9C1" stroke-width="2" stroke-linecap="round" stroke-linejoin="round"/>
<path d="M12.4955 11H12.5045" stroke="#B3B9C1" stroke-width="2" stroke-linecap="round" stroke-linejoin="round"/>
<path d="M8.49451 11H8.50349" stroke="#B3B9C1" stroke-width="2" stroke-linecap="round" stroke-linejoin="round"/>
</svg>
