<svg width="24" height="24" viewBox="0 0 24 24" fill="none" xmlns="http://www.w3.org/2000/svg">
<path d="M21.66 10.4395L20.68 14.6195C19.84 18.2295 18.18 19.6895 15.06 19.3895C14.56 19.3495 14.02 19.2595 13.44 19.1195L11.76 18.7195C7.59 17.7295 6.3 15.6695 7.28 11.4895L8.26 7.29952C8.46 6.44952 8.7 5.70952 9 5.09952C10.17 2.67952 12.16 2.02952 15.5 2.81952L17.17 3.20952C21.36 4.18952 22.64 6.25952 21.66 10.4395Z" stroke="#686D75" stroke-width="1.5" stroke-linecap="round" stroke-linejoin="round"/>
<path d="M15.06 19.3896C14.44 19.8096 13.66 20.1596 12.71 20.4696L11.13 20.9896C7.16001 22.2696 5.07001 21.1996 3.78001 17.2296L2.50001 13.2796C1.22001 9.30961 2.28001 7.20961 6.25001 5.92961L7.83001 5.40961C8.24001 5.27961 8.63001 5.16961 9.00001 5.09961C8.70001 5.70961 8.46001 6.44961 8.26001 7.29961L7.28001 11.4896C6.30001 15.6696 7.59001 17.7296 11.76 18.7196L13.44 19.1196C14.02 19.2596 14.56 19.3496 15.06 19.3896Z" stroke="#686D75" stroke-width="1.5" stroke-linecap="round" stroke-linejoin="round"/>
<path d="M12.64 8.53027L17.49 9.76027" stroke="#686D75" stroke-width="1.5" stroke-linecap="round" stroke-linejoin="round"/>
<path d="M11.66 12.4004L14.56 13.1404" stroke="#686D75" stroke-width="1.5" stroke-linecap="round" stroke-linejoin="round"/>
</svg>
