<svg width="20" height="20" viewBox="0 0 20 20" fill="none" xmlns="http://www.w3.org/2000/svg">
<path d="M9.99999 1.66699C7.81666 1.66699 6.04166 3.44199 6.04166 5.62533C6.04166 7.76699 7.71666 9.50033 9.89999 9.57533C9.96666 9.56699 10.0333 9.56699 10.0833 9.57533C10.1 9.57533 10.1083 9.57533 10.125 9.57533C10.1333 9.57533 10.1333 9.57533 10.1417 9.57533C12.275 9.50033 13.95 7.76699 13.9583 5.62533C13.9583 3.44199 12.1833 1.66699 9.99999 1.66699Z" fill="white"/>
<path d="M14.2333 11.7914C11.9083 10.2414 8.11666 10.2414 5.775 11.7914C4.71666 12.4997 4.13333 13.4581 4.13333 14.4831C4.13333 15.5081 4.71666 16.4581 5.76666 17.1581C6.93333 17.9414 8.46666 18.3331 10 18.3331C11.5333 18.3331 13.0667 17.9414 14.2333 17.1581C15.2833 16.4497 15.8667 15.4997 15.8667 14.4664C15.8583 13.4414 15.2833 12.4914 14.2333 11.7914Z" fill="white"/>
</svg>
