<svg width="20" height="20" viewBox="0 0 20 20" fill="none" xmlns="http://www.w3.org/2000/svg">
<path d="M10.1334 9.05768C10.05 9.04935 9.95005 9.04935 9.85838 9.05768C7.87505 8.99102 6.30005 7.36602 6.30005 5.36602C6.30005 3.32435 7.95005 1.66602 10 1.66602C12.0417 1.66602 13.7 3.32435 13.7 5.36602C13.6917 7.36602 12.1167 8.99102 10.1334 9.05768Z" stroke="white" stroke-width="1.5" stroke-linecap="round" stroke-linejoin="round"/>
<path d="M5.9666 12.134C3.94993 13.484 3.94993 15.684 5.9666 17.0257C8.25827 18.559 12.0166 18.559 14.3083 17.0257C16.3249 15.6757 16.3249 13.4757 14.3083 12.134C12.0249 10.609 8.2666 10.609 5.9666 12.134Z" stroke="white" stroke-width="1.5" stroke-linecap="round" stroke-linejoin="round"/>
</svg>
