<svg width="50" height="30" viewBox="0 0 50 30" fill="none" xmlns="http://www.w3.org/2000/svg">
<path d="M35.009 29.1588C42.7629 29.1588 49.0488 22.8253 49.0488 15.0125C49.0488 7.19973 42.7629 0.866211 35.009 0.866211C27.255 0.866211 20.9691 7.19973 20.9691 15.0125C20.9691 22.8253 27.255 29.1588 35.009 29.1588Z" fill="black"/>
<path d="M6.97568 14.9879C6.97568 22.801 13.2439 29.1344 20.98 29.1344L20.98 0.841797C13.2458 0.841797 6.97568 7.17576 6.97568 14.9879Z" fill="black"/>
<path d="M0 14.9726C0 20.1977 2.83247 24.759 7.0377 27.2L7.0377 2.74609C2.83051 5.18668 0 9.74842 0 14.9726Z" fill="black"/>
</svg>
