<svg width="50" height="30" viewBox="0 0 50 30" fill="none" xmlns="http://www.w3.org/2000/svg">
<path d="M35.3997 29.1579C43.1537 29.1579 49.4396 22.8243 49.4396 15.0116C49.4396 7.19876 43.1537 0.865234 35.3997 0.865234C27.6457 0.865234 21.3599 7.19876 21.3599 15.0116C21.3599 22.8243 27.6457 29.1579 35.3997 29.1579Z" fill="black"/>
<path d="M7.36621 14.9859C7.36621 22.799 13.6344 29.1325 21.3705 29.1325L21.3705 0.839844C13.6363 0.839844 7.36621 7.17381 7.36621 14.9859Z" fill="black"/>
<path d="M0.390625 14.9706C0.390625 20.1957 3.22309 24.757 7.42832 27.1981L7.42832 2.74414C3.22114 5.18473 0.390625 9.74647 0.390625 14.9706Z" fill="black"/>
</svg>
