<svg width="16" height="16" viewBox="0 0 16 16" fill="none" xmlns="http://www.w3.org/2000/svg">
<path d="M5.3335 7.5998C5.3335 8.11314 5.7335 8.53314 6.22016 8.53314H7.22016C7.64683 8.53314 7.9935 8.16647 7.9935 7.71981C7.9935 7.23314 7.78016 7.05981 7.46683 6.94647L5.86683 6.38647C5.54683 6.27314 5.3335 6.09981 5.3335 5.61314C5.3335 5.16647 5.68016 4.7998 6.10683 4.7998H7.10683C7.60016 4.80647 8.00016 5.21981 8.00016 5.73314" stroke="#151920" stroke-width="1.5" stroke-linecap="round" stroke-linejoin="round"/>
<path d="M6.6665 8.56689V9.06023" stroke="#151920" stroke-width="1.5" stroke-linecap="round" stroke-linejoin="round"/>
<path d="M6.6665 4.27344V4.79344" stroke="#151920" stroke-width="1.5" stroke-linecap="round" stroke-linejoin="round"/>
<path d="M6.66016 11.9868C9.602 11.9868 11.9868 9.602 11.9868 6.66016C11.9868 3.71833 9.602 1.3335 6.66016 1.3335C3.71833 1.3335 1.3335 3.71833 1.3335 6.66016C1.3335 9.602 3.71833 11.9868 6.66016 11.9868Z" stroke="#151920" stroke-width="1.5" stroke-linecap="round" stroke-linejoin="round"/>
<path d="M8.65332 13.2532C9.25332 14.0998 10.2333 14.6532 11.3533 14.6532C13.1733 14.6532 14.6533 13.1732 14.6533 11.3532C14.6533 10.2465 14.1067 9.2665 13.2733 8.6665" stroke="#151920" stroke-width="1.5" stroke-linecap="round" stroke-linejoin="round"/>
</svg>
