<svg width="20" height="20" viewBox="0 0 20 20" fill="none" xmlns="http://www.w3.org/2000/svg">
<path d="M14.8332 1.75041L6.55825 3.82541C5.34991 4.12541 4.12491 5.35041 3.82491 6.55874L1.74991 14.8337C1.12491 17.3337 2.65825 18.8754 5.16658 18.2504L13.4416 16.1837C14.6416 15.8837 15.8749 14.6504 16.1749 13.4504L18.2499 5.16707C18.8749 2.66707 17.3332 1.12541 14.8332 1.75041Z" stroke="white" stroke-width="1.5" stroke-linecap="round" stroke-linejoin="round"/>
<path d="M10.0002 12.9163C11.611 12.9163 12.9168 11.6105 12.9168 9.99967C12.9168 8.38884 11.611 7.08301 10.0002 7.08301C8.38933 7.08301 7.0835 8.38884 7.0835 9.99967C7.0835 11.6105 8.38933 12.9163 10.0002 12.9163Z" stroke="white" stroke-width="1.5" stroke-linecap="round" stroke-linejoin="round"/>
</svg>
