<svg width="18" height="18" viewBox="0 0 18 18" fill="none" xmlns="http://www.w3.org/2000/svg">
<path d="M16.3125 5.0625V12.9375C16.3125 13.8695 15.557 14.625 14.625 14.625H3.375C2.44302 14.625 1.6875 13.8695 1.6875 12.9375V5.0625M16.3125 5.0625C16.3125 4.13052 15.557 3.375 14.625 3.375H3.375C2.44302 3.375 1.6875 4.13052 1.6875 5.0625M16.3125 5.0625V5.24453C16.3125 5.83054 16.0085 6.37458 15.5094 6.68171L9.88441 10.1432C9.34204 10.477 8.65796 10.477 8.11559 10.1432L2.49059 6.68171C1.99151 6.37458 1.6875 5.83054 1.6875 5.24453V5.0625" stroke="#151920" stroke-width="1.5" stroke-linecap="round" stroke-linejoin="round"/>
</svg>
