<svg width="129" height="20" viewBox="0 0 129 20" fill="none" xmlns="http://www.w3.org/2000/svg">
<g clip-path="url(#clip0_519_44206)">
<path d="M24.0966 19.1526C29.236 19.1526 33.4023 14.9622 33.4023 9.79311C33.4023 4.62399 29.236 0.433594 24.0966 0.433594C18.9573 0.433594 14.791 4.62399 14.791 9.79311C14.791 14.9622 18.9573 19.1526 24.0966 19.1526Z" fill="black"/>
<path d="M5.52051 9.79279C5.52051 14.962 9.68562 19.1523 14.8261 19.1523L14.8261 0.433594C9.68691 0.433594 5.52051 4.62421 5.52051 9.79279Z" fill="black"/>
<path d="M0.915527 9.7922C0.915527 13.2567 2.78821 16.281 5.56851 17.8995L5.56851 1.68555C2.78692 3.30376 0.915527 6.32838 0.915527 9.7922Z" fill="black"/>
<path d="M128.808 1.91128C128.695 1.63884 128.528 1.39285 128.316 1.18871C128.104 0.988156 127.855 0.830651 127.584 0.724788C127.007 0.500591 126.369 0.500591 125.793 0.724788C125.521 0.830399 125.271 0.987921 125.058 1.18871C124.847 1.39246 124.68 1.63859 124.568 1.91128C124.446 2.203 124.385 2.51659 124.388 2.83295C124.388 3.2728 124.491 3.66732 124.697 4.01651C124.895 4.35799 125.183 4.63733 125.529 4.82334C125.888 5.00935 126.284 5.10639 126.687 5.10639C127.09 5.10639 127.487 5.00935 127.845 4.82334C128.192 4.63713 128.48 4.35787 128.679 4.01651C128.886 3.66754 128.99 3.27302 128.99 2.83295C128.992 2.51646 128.931 2.20277 128.808 1.91128ZM128.358 3.59293C128.276 3.81277 128.149 4.01281 127.985 4.18018C127.821 4.34755 127.625 4.47853 127.408 4.5647C127.18 4.65729 126.936 4.70393 126.691 4.70199C126.447 4.70353 126.206 4.65689 125.98 4.5647C125.766 4.47807 125.57 4.34947 125.405 4.18633C125.239 4.01712 125.109 3.81511 125.023 3.59293C124.928 3.35114 124.88 3.09306 124.882 2.83295C124.88 2.57831 124.928 2.32571 125.023 2.08989C125.109 1.87289 125.24 1.67637 125.405 1.51274C125.571 1.35303 125.766 1.22806 125.98 1.14512C126.244 1.0437 126.525 0.999559 126.807 1.01559C127.089 1.03163 127.364 1.10748 127.614 1.23817C127.885 1.3861 128.109 1.60872 128.26 1.88005C128.417 2.15788 128.495 2.47552 128.495 2.83295C128.498 3.09278 128.451 3.35075 128.358 3.59293Z" fill="black"/>
<path d="M127.568 2.66596C127.64 2.55396 127.678 2.42289 127.677 2.28923C127.682 2.15908 127.656 2.0296 127.603 1.91087C127.554 1.81085 127.473 1.73057 127.372 1.68313C127.263 1.62975 127.146 1.59376 127.025 1.57642C126.866 1.55486 126.706 1.54508 126.546 1.54715L125.812 1.54715V3.95461H126.306V3.03619H126.764L127.25 3.95461H127.792L127.24 2.92949C127.373 2.87618 127.487 2.78447 127.568 2.66596ZM127.056 2.56576C126.972 2.62519 126.837 2.6549 126.652 2.6549H126.307V1.93917H126.626C126.806 1.93917 126.943 1.96509 127.039 2.01693C127.135 2.06876 127.183 2.16138 127.183 2.29476C127.183 2.41579 127.141 2.50579 127.056 2.56478V2.56576Z" fill="black"/>
<path d="M46.6376 8.54192L45.0616 8.23448C42.3676 7.671 41.5287 7.00504 41.5287 5.54527C41.5287 4.16227 42.5962 3.29168 44.782 3.29168C47.6556 3.29168 48.6456 4.39294 48.7728 6.33941L52.1023 6.33941C51.9754 2.90747 49.8147 0.5 44.7313 0.5C40.3848 0.5 38.021 2.62573 38.021 5.64775C38.021 8.95151 40.3341 10.5138 43.8418 11.1784L45.3668 11.4859C48.1374 12.0493 49.0776 12.6896 49.0776 14.1237C49.0776 15.8395 47.7812 16.7615 45.4175 16.7615C42.9013 16.7615 40.994 15.9934 40.944 13.1249H37.5635C37.589 17.3249 40.4865 19.5532 45.3157 19.5532C49.8402 19.5532 52.636 17.5556 52.636 13.9444C52.636 11.0515 50.9076 9.38713 46.6376 8.54192Z" fill="black"/>
<path d="M59.9751 5.62109C56.086 5.62109 53.4937 8.38643 53.4937 12.5361C53.4937 16.7618 56.1625 19.451 60.0258 19.451C63.1777 19.451 65.4653 17.7352 66.1259 15.046H63.0505C62.5662 16.224 61.5762 16.9411 60.0513 16.9411C58.1957 16.9411 56.8742 15.8912 56.6453 13.5348L66.4565 13.5348V12.7667C66.4565 8.56633 63.991 5.62109 59.9751 5.62109ZM56.6708 11.2819C56.9759 9.10509 58.2467 8.13169 59.9496 8.13169C61.8545 8.13169 62.9998 9.41221 63.2539 11.2819L56.6708 11.2819Z" fill="black"/>
<path d="M79.1118 9.59212C79.1118 7.21035 77.562 5.62305 73.6471 5.62305C69.5546 5.62305 67.928 7.33917 67.75 10.1305H70.902C71.0289 8.51721 71.7915 8.03051 73.6216 8.03051C75.4771 8.03051 76.0109 8.64539 76.0109 9.66954C76.0109 10.6429 75.3754 11.0272 74.1553 11.1807L72.1728 11.36C68.4617 11.7178 67.1401 13.2794 67.1401 15.4832C67.1401 18.0443 69.0719 19.4523 71.8677 19.4523C73.7995 19.4523 75.2227 18.761 76.087 17.5328C76.1377 18.1731 76.2394 18.7877 76.4422 19.1462H79.6448C79.2897 18.6341 79.1111 17.5846 79.1111 16.6366L79.1118 9.59212ZM76.0121 13.9191C76.0121 16.224 74.3332 17.146 72.6316 17.146C71.1574 17.146 70.4202 16.4547 70.4202 15.3534C70.4202 14.3033 71.005 13.6617 72.784 13.458L74.5124 13.2531C75.1988 13.1763 75.6815 13.0228 76.0121 12.7153V13.9191Z" fill="black"/>
<path d="M86.7524 16.7618C84.8969 16.7618 83.5498 15.4302 83.5498 12.5361C83.5498 9.64189 84.8462 8.3103 86.7524 8.3103C88.1757 8.3103 89.3448 9.05303 89.6499 10.6921H92.8525C92.4712 7.59326 90.1836 5.62109 86.7524 5.62109C82.8382 5.62109 80.271 8.3103 80.271 12.5361C80.271 16.7618 82.8634 19.451 86.7524 19.451C90.1074 19.451 92.5474 17.4535 92.9032 14.2265H89.7009C89.4465 15.968 88.2012 16.7618 86.7524 16.7618Z" fill="black"/>
<path d="M97.3237 0.910156L94.1211 0.910156V19.1451H97.3237V0.910156Z" fill="black"/>
<path d="M107.684 13.3327C107.684 15.6887 106.159 16.6618 104.761 16.6618C103.109 16.6618 102.295 15.8423 102.295 14.1522V5.93099L99.0928 5.93099V14.6899C99.0928 17.8402 100.948 19.4535 103.668 19.4535C105.549 19.4535 106.921 18.5058 107.786 17.2253V19.1447H110.885V5.92969H107.683L107.684 13.3327Z" fill="black"/>
<path d="M119.98 5.62131C118.15 5.62131 116.803 6.36405 115.912 7.64456V0.910156L112.709 0.910156V19.1448H115.785V17.2497C116.675 18.6327 118.072 19.4522 119.979 19.4522C123.588 19.4522 125.85 16.7376 125.85 12.5372C125.85 8.33687 123.589 5.62131 119.98 5.62131ZM119.218 16.7864C117.134 16.7864 115.837 15.3267 115.837 12.535C115.837 9.74329 117.134 8.28351 119.218 8.28351C121.302 8.28351 122.598 9.64113 122.598 12.4325C122.598 15.2239 121.302 16.7864 119.218 16.7864Z" fill="black"/>
</g>
<defs>
<clipPath id="clip0_519_44206">
<rect width="128.085" height="19.1296" fill="white" transform="translate(0.915039 0.433594)"/>
</clipPath>
</defs>
</svg>
