<svg width="129" height="20" viewBox="0 0 129 20" fill="none" xmlns="http://www.w3.org/2000/svg">
<g clip-path="url(#clip0_421_32928)">
<path d="M23.1816 19.1546C28.3209 19.1546 32.4872 14.9642 32.4872 9.79507C32.4872 4.62595 28.3209 0.435547 23.1816 0.435547C18.0422 0.435547 13.8759 4.62595 13.8759 9.79507C13.8759 14.9642 18.0422 19.1546 23.1816 19.1546Z" fill="black"/>
<path d="M4.60522 9.79474C4.60522 14.964 8.77033 19.1543 13.9109 19.1543L13.9109 0.435547C8.77163 0.435547 4.60522 4.62617 4.60522 9.79474Z" fill="black"/>
<path d="M0.000427246 9.79416C0.000427246 13.2586 1.87311 16.2829 4.65341 17.9015L4.65341 1.6875C1.87182 3.30571 0.000427246 6.33033 0.000427246 9.79416Z" fill="black"/>
<path d="M127.893 1.91323C127.78 1.6408 127.613 1.3948 127.401 1.19067C127.189 0.990109 126.94 0.832604 126.669 0.726741C126.092 0.502545 125.454 0.502545 124.878 0.726741C124.606 0.832353 124.356 0.989874 124.143 1.19067C123.932 1.39442 123.765 1.64054 123.653 1.91323C123.531 2.20495 123.47 2.51854 123.473 2.8349C123.473 3.27476 123.576 3.66927 123.782 4.01846C123.98 4.35994 124.268 4.63928 124.614 4.82529C124.973 5.0113 125.369 5.10835 125.772 5.10835C126.175 5.10835 126.572 5.0113 126.93 4.82529C127.277 4.63908 127.565 4.35982 127.764 4.01846C127.971 3.66949 128.075 3.27497 128.075 2.8349C128.077 2.51841 128.016 2.20472 127.893 1.91323ZM127.443 3.59488C127.361 3.81472 127.234 4.01476 127.07 4.18213C126.906 4.3495 126.71 4.48048 126.493 4.56665C126.265 4.65924 126.021 4.70588 125.776 4.70394C125.532 4.70549 125.291 4.65884 125.065 4.56665C124.851 4.48003 124.655 4.35142 124.49 4.18829C124.324 4.01907 124.194 3.81707 124.108 3.59488C124.013 3.35309 123.965 3.09501 123.967 2.8349C123.965 2.58026 124.013 2.32766 124.108 2.09184C124.194 1.87485 124.325 1.67832 124.49 1.5147C124.656 1.35498 124.851 1.23002 125.065 1.14707C125.329 1.04565 125.61 1.00151 125.892 1.01755C126.174 1.03358 126.449 1.10944 126.699 1.24012C126.97 1.38805 127.194 1.61067 127.345 1.882C127.502 2.15984 127.58 2.47747 127.58 2.8349C127.583 3.09473 127.536 3.3527 127.443 3.59488Z" fill="black"/>
<path d="M126.653 2.66792C126.725 2.55591 126.763 2.42485 126.762 2.29118C126.767 2.16103 126.741 2.03155 126.688 1.91282C126.639 1.8128 126.558 1.73253 126.457 1.68509C126.348 1.63171 126.231 1.59571 126.11 1.57838C125.951 1.55681 125.791 1.54703 125.631 1.5491L124.897 1.5491V3.95657H125.391V3.03814H125.848L126.335 3.95657H126.877L126.325 2.93144C126.458 2.87813 126.572 2.78643 126.653 2.66792ZM126.141 2.56771C126.057 2.62714 125.922 2.65685 125.737 2.65685H125.392V1.94112H125.711C125.891 1.94112 126.028 1.96704 126.124 2.01888C126.22 2.07072 126.268 2.16333 126.268 2.29672C126.268 2.41774 126.226 2.50774 126.141 2.56674V2.56771Z" fill="black"/>
<path d="M45.7228 8.54387L44.1468 8.23643C41.4527 7.67296 40.6139 7.00699 40.6139 5.54722C40.6139 4.16423 41.6813 3.29363 43.8672 3.29363C46.7408 3.29363 47.7307 4.39489 47.858 6.34136L51.1875 6.34136C51.0606 2.90942 48.8999 0.501953 43.8165 0.501953C39.4699 0.501953 37.1062 2.62768 37.1062 5.64971C37.1062 8.95347 39.4193 10.5157 42.927 11.1804L44.4519 11.4878C47.2225 12.0513 48.1628 12.6915 48.1628 14.1256C48.1628 15.8414 46.8664 16.7634 44.5026 16.7634C41.9864 16.7634 40.0792 15.9953 40.0292 13.1268H36.6487C36.6742 17.3269 39.5717 19.5551 44.4009 19.5551C48.9254 19.5551 51.7212 17.5576 51.7212 13.9464C51.7212 11.0535 49.9928 9.38909 45.7228 8.54387Z" fill="black"/>
<path d="M59.0599 5.62402C55.1708 5.62402 52.5784 8.38936 52.5784 12.539C52.5784 16.7647 55.2473 19.4539 59.1105 19.4539C62.2625 19.4539 64.5501 17.7381 65.2107 15.0489H62.1353C61.6509 16.227 60.661 16.944 59.1361 16.944C57.2805 16.944 55.9589 15.8942 55.73 13.5378L65.5413 13.5378V12.7696C65.5413 8.56926 63.0758 5.62402 59.0599 5.62402ZM55.7555 11.2848C56.0607 9.10802 57.3315 8.13462 59.0343 8.13462C60.9393 8.13462 62.0846 9.41514 62.3387 11.2848L55.7555 11.2848Z" fill="black"/>
<path d="M78.1969 9.59407C78.1969 7.2123 76.6471 5.625 72.7322 5.625C68.6398 5.625 67.0131 7.34113 66.8352 10.1325H69.9871C70.114 8.51916 70.8767 8.03247 72.7067 8.03247C74.5623 8.03247 75.096 8.64734 75.096 9.67149C75.096 10.6449 74.4606 11.0291 73.2405 11.1827L71.258 11.3619C67.5468 11.7198 66.2253 13.2814 66.2253 15.4852C66.2253 18.0462 68.1571 19.4543 70.9529 19.4543C72.8846 19.4543 74.3079 18.7629 75.1722 17.5348C75.2229 18.1751 75.3246 18.7896 75.5274 19.1481H78.73C78.3748 18.6361 78.1963 17.5865 78.1963 16.6385L78.1969 9.59407ZM75.0973 13.921C75.0973 16.226 73.4184 17.148 71.7168 17.148C70.2425 17.148 69.5054 16.4566 69.5054 15.3554C69.5054 14.3052 70.0901 13.6637 71.8692 13.46L73.5975 13.255C74.284 13.1783 74.7667 13.0247 75.0973 12.7173V13.921Z" fill="black"/>
<path d="M85.8376 16.7647C83.982 16.7647 82.635 15.4332 82.635 12.539C82.635 9.64482 83.9313 8.31323 85.8376 8.31323C87.2608 8.31323 88.4299 9.05596 88.7351 10.695H91.9377C91.5564 7.59619 89.2688 5.62402 85.8376 5.62402C81.9233 5.62402 79.3561 8.31323 79.3561 12.539C79.3561 16.7647 81.9485 19.4539 85.8376 19.4539C89.1926 19.4539 91.6326 17.4564 91.9884 14.2294H88.7861C88.5317 15.9709 87.2863 16.7647 85.8376 16.7647Z" fill="black"/>
<path d="M96.4087 0.911133L93.2061 0.911133V19.1461H96.4087V0.911133Z" fill="black"/>
<path d="M106.769 13.3336C106.769 15.6897 105.244 16.6628 103.846 16.6628C102.194 16.6628 101.381 15.8433 101.381 14.1531V5.93197L98.178 5.93197V14.6909C98.178 17.8411 100.034 19.4545 102.753 19.4545C104.634 19.4545 106.006 18.5068 106.871 17.2262V19.1457H109.97V5.93066H106.768L106.769 13.3336Z" fill="black"/>
<path d="M119.065 5.62424C117.235 5.62424 115.888 6.36698 114.997 7.64749V0.913086L111.795 0.913086V19.1477H114.87V17.2526C115.76 18.6356 117.158 19.4551 119.064 19.4551C122.673 19.4551 124.935 16.7406 124.935 12.5402C124.935 8.3398 122.675 5.62424 119.065 5.62424ZM118.303 16.7894C116.219 16.7894 114.922 15.3296 114.922 12.5379C114.922 9.74622 116.219 8.28644 118.303 8.28644C120.387 8.28644 121.683 9.64406 121.683 12.4354C121.683 15.2268 120.387 16.7894 118.303 16.7894Z" fill="black"/>
</g>
<defs>
<clipPath id="clip0_421_32928">
<rect width="128.085" height="19.1296" fill="white" transform="translate(0 0.435547)"/>
</clipPath>
</defs>
</svg>
