<svg width="24" height="24" viewBox="0 0 24 24" fill="none" xmlns="http://www.w3.org/2000/svg">
<path d="M8.50049 19H8.00049C4.00049 19 2.00049 18 2.00049 13V8C2.00049 4 4.00049 2 8.00049 2H16.0005C20.0005 2 22.0005 4 22.0005 8V13C22.0005 17 20.0005 19 16.0005 19H15.5005C15.1905 19 14.8905 19.15 14.7005 19.4L13.2005 21.4C12.5405 22.28 11.4605 22.28 10.8005 21.4L9.30049 19.4C9.14049 19.18 8.77049 19 8.50049 19Z" stroke="#30353C" stroke-width="1.5" stroke-miterlimit="10" stroke-linecap="round" stroke-linejoin="round"/>
<path d="M15.9969 11H16.0059" stroke="#30353C" stroke-width="2" stroke-linecap="round" stroke-linejoin="round"/>
<path d="M11.996 11H12.005" stroke="#30353C" stroke-width="2" stroke-linecap="round" stroke-linejoin="round"/>
<path d="M7.995 11H8.00398" stroke="#30353C" stroke-width="2" stroke-linecap="round" stroke-linejoin="round"/>
</svg>
