<svg width="24" height="24" viewBox="0 0 24 24" fill="none" xmlns="http://www.w3.org/2000/svg">
<path d="M12.0206 2.91016C8.71058 2.91016 6.02058 5.60016 6.02058 8.91016V11.8002C6.02058 12.4102 5.76058 13.3402 5.45058 13.8602L4.30058 15.7702C3.59058 16.9502 4.08058 18.2602 5.38058 18.7002C9.69058 20.1402 14.3406 20.1402 18.6506 18.7002C19.8606 18.3002 20.3906 16.8702 19.7306 15.7702L18.5806 13.8602C18.2806 13.3402 18.0206 12.4102 18.0206 11.8002V8.91016C18.0206 5.61016 15.3206 2.91016 12.0206 2.91016Z" stroke="#30353C" stroke-width="1.5" stroke-miterlimit="10" stroke-linecap="round"/>
<path d="M13.8704 3.19945C13.5604 3.10945 13.2404 3.03945 12.9104 2.99945C11.9504 2.87945 11.0304 2.94945 10.1704 3.19945C10.4604 2.45945 11.1804 1.93945 12.0204 1.93945C12.8604 1.93945 13.5804 2.45945 13.8704 3.19945Z" stroke="#30353C" stroke-width="1.5" stroke-miterlimit="10" stroke-linecap="round" stroke-linejoin="round"/>
<path d="M15.0205 19.0605C15.0205 20.7105 13.6705 22.0605 12.0205 22.0605C11.2005 22.0605 10.4405 21.7205 9.90051 21.1805C9.36051 20.6405 9.02051 19.8805 9.02051 19.0605" stroke="#30353C" stroke-width="1.5" stroke-miterlimit="10"/>
</svg>
