<svg width="18" height="18" viewBox="0 0 18 18" fill="none" xmlns="http://www.w3.org/2000/svg">
<path fill-rule="evenodd" clip-rule="evenodd" d="M14.4602 3.53975C14.6799 3.75942 14.6799 4.11558 14.4602 4.33525L4.33525 14.4602C4.11558 14.6799 3.75942 14.6799 3.53975 14.4602C3.32008 14.2406 3.32008 13.8844 3.53975 13.6648L13.6648 3.53975C13.8844 3.32008 14.2406 3.32008 14.4602 3.53975Z" fill="black"/>
<path fill-rule="evenodd" clip-rule="evenodd" d="M3.53975 3.53975C3.75942 3.32008 4.11558 3.32008 4.33525 3.53975L14.4602 13.6648C14.6799 13.8844 14.6799 14.2406 14.4602 14.4602C14.2406 14.6799 13.8844 14.6799 13.6648 14.4602L3.53975 4.33525C3.32008 4.11558 3.32008 3.75942 3.53975 3.53975Z" fill="black"/>
</svg>
